<?xml version="1.0" encoding="UTF-8"?>
<!DOCTYPE svg PUBLIC "-//W3C//DTD SVG 1.1//EN" "http://www.w3.org/Graphics/SVG/1.1/DTD/svg11.dtd">
<!-- Creator: CorelDRAW -->
<svg xmlns="http://www.w3.org/2000/svg" xml:space="preserve" width="0.890862in" height="0.90911in" version="1.1" style="shape-rendering:geometricPrecision; text-rendering:geometricPrecision; image-rendering:optimizeQuality; fill-rule:evenodd; clip-rule:evenodd"
viewBox="0 0 623.19 635.96"
 xmlns:xlink="http://www.w3.org/1999/xlink"
 xmlns:xodm="http://www.corel.com/coreldraw/odm/2003">
 <defs>
  <style type="text/css">
   <![CDATA[
    .str0 {stroke:#006843;stroke-width:19.43;stroke-miterlimit:2.61313}
    .fil0 {fill:none;fill-rule:nonzero}
    .fil1 {fill:#FEFEFE}
    .fil2 {fill:#006843}
    .fil3 {fill:#FEFEFE;fill-rule:nonzero}
    .fil5 {fill:#006843;fill-rule:nonzero}
    .fil4 {fill:white;fill-rule:nonzero}
   ]]>
  </style>
 </defs>
 <g id="Layer_x0020_1">
  <metadata id="CorelCorpID_0Corel-Layer"/>
  <g id="_3158120654160">
   <path class="fil0 str0" d="M311.6 9.72c166.72,0 301.88,138.01 301.88,308.26 0,170.25 -135.15,308.26 -301.88,308.26 -166.72,0 -301.88,-138.02 -301.88,-308.26 0,-170.25 135.16,-308.26 301.88,-308.26z"/>
   <path class="fil1" d="M310.34 623.04c165.69,0 300,-137.16 300,-306.34 0,-169.19 -134.32,-306.34 -300,-306.34 -165.69,0 -300,137.16 -300,306.34 0,169.19 134.31,306.34 300,306.34z"/>
   <path class="fil2" d="M610.32 318.4l-599.96 0c-0,-0.57 -0.02,-1.13 -0.02,-1.7 0,-169.19 134.31,-306.34 300,-306.34 165.69,0 300,137.16 300,306.34 0,0.57 -0.02,1.13 -0.02,1.7z"/>
   <path class="fil2" d="M10.67 330.94l599.34 0c-0.19,4.23 -0.47,8.44 -0.83,12.62l-597.68 0c-0.36,-4.18 -0.64,-8.39 -0.83,-12.62z"/>
   <path class="fil2" d="M12.71 355.44l595.25 0c-0.53,4.23 -1.15,8.44 -1.84,12.62l-591.56 0c-0.69,-4.18 -1.32,-8.39 -1.84,-12.62z"/>
   <path class="fil2" d="M16.75 379.94l587.17 0c-0.87,4.23 -1.82,8.44 -2.86,12.61l-581.45 0c-1.04,-4.17 -1.99,-8.38 -2.86,-12.61z"/>
   <path class="fil2" d="M22.84 404.43l574.99 0c-1.24,4.24 -2.57,8.45 -3.98,12.61l-567.03 0c-1.41,-4.16 -2.73,-8.37 -3.98,-12.61z"/>
   <path class="fil2" d="M31.11 428.93l558.45 0c-1.64,4.26 -3.38,8.46 -5.2,12.62l-548.05 0c-1.82,-4.16 -3.56,-8.36 -5.2,-12.62z"/>
   <path class="fil2" d="M310.34 87.15c124.15,0 224.79,102.77 224.79,229.54 0,126.77 -100.65,229.54 -224.79,229.54 -124.15,0 -224.79,-102.77 -224.79,-229.54 0,-126.77 100.64,-229.54 224.79,-229.54z"/>
   <path class="fil3" d="M310.34 84.68c125.48,0 227.21,103.88 227.21,232.01 0,128.13 -101.73,232.01 -227.21,232.01 -125.49,0 -227.21,-103.88 -227.21,-232.01 0,-128.14 101.73,-232.01 227.21,-232.01zm222.36 232.01c0,-125.41 -99.55,-227.07 -222.36,-227.07 -122.81,0 -222.37,101.66 -222.37,227.07 0,125.4 99.56,227.07 222.37,227.07 122.81,0 222.36,-101.66 222.36,-227.07z"/>
   <path class="fil1" d="M114.54 312.88c0,-109.27 86.75,-197.85 193.75,-197.85 3.79,0 7.56,0.12 11.29,0.35 -89.96,5.6 -161.22,81.86 -161.22,175.12 0,96.91 76.93,175.47 171.84,175.47 91.34,0 166.01,-72.77 171.5,-164.63 0.21,3.82 0.33,7.66 0.33,11.54 0,109.26 -86.74,197.84 -193.75,197.84 -107,0 -193.75,-88.58 -193.75,-197.84zm247.99 -121.74l32.9 17.2 26.08 -26.74 -5.85 37.26 32.96 17.07 -36.52 5.83 -5.71 37.29 -16.71 -33.66 -36.49 5.97 26.19 -26.64 -16.84 -33.59z"/>
   <path class="fil4" d="M33.64 265.56l2.31 -10.18c0.63,-2.75 1.31,-4.81 2.08,-6.19 0.75,-1.37 1.62,-2.34 2.58,-2.89 0.97,-0.56 2.05,-0.82 3.25,-0.83 1.19,0 2.98,0.29 5.36,0.85l3.31 0.78c2.42,0.58 4.14,1.25 5.13,2.03 1,0.77 1.64,1.92 1.93,3.42 0.28,1.5 0.17,3.35 -0.33,5.56l-0.61 2.7 15.34 3.63 -2.3 10.12 -38.04 -9.01zm8.79 -8.58l9.69 2.29c0.08,-0.28 0.15,-0.53 0.19,-0.73 0.21,-0.93 0.13,-1.61 -0.24,-2.08 -0.36,-0.46 -1.25,-0.86 -2.66,-1.2l-3.14 -0.74c-1.3,-0.31 -2.19,-0.31 -2.68,0.02 -0.48,0.32 -0.87,1.13 -1.17,2.43zm2.96 -35.64l38.85 7.15 -3.32 10.04 -6.82 -1.76 -1.17 3.54 6.46 2.83 -3.37 10.16 -35.34 -17.75 4.7 -14.21zm22.08 13.43c-4.35,-0.98 -9.7,-2.28 -16.07,-3.89 6.79,3.43 11.78,5.83 14.97,7.23l1.1 -3.33zm-8.35 -46.91l13.7 12.79 22.13 3.08 -4.3 9.74 -16.95 -3.18 15.26 7.01 -4.17 9.47 -35.61 -16.37 4.18 -9.47 13.83 6.36 -11.96 -10.61 3.89 -8.82zm7.97 -14.58l33.83 19.9 -5.07 9 -33.84 -19.9 5.08 -9zm24.5 -17.16l-5.09 8.1 -2.44 -1.59c-1.13,-0.74 -1.93,-1.11 -2.37,-1.11 -0.44,0 -0.8,0.25 -1.1,0.72 -0.33,0.52 -0.37,1.05 -0.12,1.6 0.25,0.54 0.79,1.09 1.64,1.64 1.1,0.72 2.02,1.1 2.76,1.16 0.74,0.07 1.92,-0.32 3.56,-1.15 4.69,-2.39 8.09,-3.61 10.16,-3.67 2.08,-0.06 4.74,0.96 7.95,3.07 2.34,1.53 3.89,2.94 4.66,4.23 0.75,1.28 1.01,2.96 0.75,5.06 -0.25,2.09 -1.04,4.2 -2.38,6.32 -1.47,2.34 -3.15,4.04 -5.05,5.12 -1.9,1.08 -3.68,1.44 -5.34,1.08 -1.66,-0.37 -3.73,-1.37 -6.19,-2.97l-2.16 -1.41 5.09 -8.11 4 2.62c1.23,0.81 2.1,1.21 2.59,1.21 0.5,0.01 0.92,-0.28 1.28,-0.86 0.37,-0.58 0.41,-1.15 0.14,-1.73 -0.27,-0.57 -0.84,-1.15 -1.72,-1.72 -1.93,-1.27 -3.37,-1.83 -4.3,-1.68 -0.95,0.18 -2.8,0.88 -5.55,2.13 -2.76,1.24 -4.69,2 -5.77,2.29 -1.07,0.28 -2.32,0.29 -3.73,0.03 -1.41,-0.28 -2.99,-0.98 -4.73,-2.13 -2.51,-1.65 -4.16,-3.17 -4.91,-4.6 -0.75,-1.42 -1,-3.07 -0.74,-4.96 0.26,-1.89 1.04,-3.87 2.34,-5.94 1.42,-2.26 2.99,-3.96 4.7,-5.09 1.72,-1.12 3.28,-1.58 4.7,-1.39 1.41,0.2 3.43,1.15 6.04,2.86l1.3 0.86zm7.48 -29.1l6.15 4.91 -3.68 4.8 24.63 19.65 -6.26 8.18 -24.62 -19.65 -3.71 4.85 -6.15 -4.9 13.64 -17.84zm15.21 -15.91l32.24 23.27 -7.16 7.66 -5.45 -4.54 -2.53 2.7 4.68 5.36 -7.26 7.75 -24.67 -31.35 10.15 -10.84zm14.44 21.7c-3.54,-2.77 -7.85,-6.25 -12.95,-10.47 4.73,6.04 8.25,10.37 10.57,13.02l2.38 -2.55zm12.66 -45.3l24.22 31.27 -6.97 5.63 -15.16 -10.87 11.02 14.22 -6.66 5.38 -24.22 -31.27 6.66 -5.38 15.36 10.48 -10.91 -14.08 6.66 -5.38zm42.12 -27.21l19.42 34.59 -7.71 4.51 -13.13 -23.34 10.05 25.14 -5.4 3.16 -16.05 -20.93 12.8 22.85 -7.71 4.51 -19.42 -34.59 11.39 -6.67c1.49,1.91 3.23,4.16 5.18,6.76l6.18 8.05 -7.06 -17.32 11.47 -6.71zm24.99 -10.93l19.82 34.86 -9.64 3.91 -3.1 -6.44 -3.4 1.38 2.08 6.86 -9.77 3.96 -9.63 -39 13.65 -5.54zm4.27 25.88c-2.08,-4.03 -4.58,-9.03 -7.5,-15.04 1.84,7.5 3.27,12.94 4.3,16.34l3.2 -1.3zm6.48 -30.34l6.91 -1.99c4.61,-1.32 7.78,-2.05 9.51,-2.15 1.73,-0.1 3.32,0.44 4.76,1.64 1.44,1.19 2.62,3.43 3.52,6.7 0.83,2.99 1.02,5.09 0.58,6.34 -0.44,1.23 -1.7,2.26 -3.79,3.07 2.07,-0.06 3.56,0.21 4.45,0.85 0.89,0.63 1.51,1.27 1.86,1.91 0.36,0.64 0.96,2.51 1.81,5.6l2.8 10.14 -9.07 2.62 -3.53 -12.77c-0.57,-2.05 -1.08,-3.28 -1.53,-3.68 -0.45,-0.4 -1.34,-0.4 -2.68,-0.02l4.79 17.32 -9.79 2.82 -10.61 -38.38zm11.6 3.73l2.36 8.54c1.1,-0.31 1.81,-0.69 2.16,-1.13 0.35,-0.43 0.29,-1.5 -0.17,-3.19l-0.58 -2.11c-0.34,-1.22 -0.78,-1.96 -1.3,-2.22 -0.53,-0.26 -1.35,-0.22 -2.47,0.1zm41.46 -16.4l-2.56 18.77 10.06 20.36 -10.29 1.91 -7.04 -16.07 2.99 16.82 -10.01 1.85 -6.97 -39.23 10.01 -1.86 2.71 15.24 1.78 -16.08 9.33 -1.73zm24.75 -2.12l8.76 39.31 -10.34 0.8 -1.08 -7.09 -3.65 0.29 -0.02 7.17 -10.48 0.81 2.17 -40.16 14.64 -1.14zm-3.47 26c-0.82,-4.47 -1.74,-10.01 -2.78,-16.62 -0.43,7.71 -0.65,13.34 -0.65,16.89l3.43 -0.27zm33.28 -25.86l-0.22 7.96 -8.18 23.72 7.53 0.22 -0.22 7.96 -18.7 -0.53 0.16 -5.78 8.54 -25.9 -6.88 -0.2 0.22 -7.96 17.76 0.51zm14.61 1.24l-2.96 39.76 -10.14 -0.78 2.96 -39.76 10.14 0.79zm49.04 9.74l-8.82 38.85 -8.65 -2.05 5.93 -26.23 -9.39 25.41 -6.06 -1.44 2.19 -26.49 -5.84 25.63 -8.65 -2.05 8.81 -38.85 12.79 3.03c-0.18,2.43 -0.41,5.29 -0.7,8.56l-0.83 10.19 6.37 -17.6 12.88 3.04zm30.94 11.86l-9.64 24.78c-1.1,2.81 -1.96,4.75 -2.57,5.81 -0.63,1.07 -1.61,2.02 -2.96,2.86 -1.35,0.84 -2.86,1.28 -4.54,1.31 -1.69,0.03 -3.5,-0.34 -5.46,-1.14 -2.16,-0.88 -3.93,-2.02 -5.3,-3.42 -1.37,-1.41 -2.24,-2.86 -2.6,-4.37 -0.37,-1.51 -0.37,-2.95 -0.01,-4.32 0.36,-1.36 1.36,-4.14 2.98,-8.31l8.54 -21.95 9.45 3.84 -10.82 27.79c-0.63,1.62 -0.95,2.69 -0.95,3.21 -0.01,0.52 0.25,0.88 0.76,1.09 0.58,0.24 1.06,0.14 1.42,-0.28 0.36,-0.43 0.9,-1.57 1.62,-3.41l10.63 -27.33 9.45 3.84zm20.71 23.79l-8.4 -4.37 1.31 -2.63c0.61,-1.23 0.9,-2.07 0.85,-2.52 -0.04,-0.45 -0.32,-0.8 -0.82,-1.05 -0.54,-0.28 -1.06,-0.28 -1.57,0.04 -0.5,0.3 -0.98,0.92 -1.44,1.83 -0.59,1.18 -0.88,2.16 -0.86,2.92 0.02,0.76 0.5,1.93 1.48,3.51 2.79,4.53 4.32,7.86 4.58,9.96 0.27,2.11 -0.47,4.91 -2.21,8.38 -1.26,2.53 -2.48,4.25 -3.66,5.15 -1.17,0.9 -2.79,1.32 -4.86,1.26 -2.06,-0.05 -4.19,-0.64 -6.4,-1.78 -2.42,-1.26 -4.24,-2.81 -5.49,-4.64 -1.24,-1.82 -1.76,-3.59 -1.58,-5.32 0.19,-1.72 0.96,-3.92 2.28,-6.58l1.16 -2.32 8.4 4.37 -2.15 4.32c-0.67,1.33 -0.98,2.25 -0.93,2.75 0.05,0.51 0.37,0.91 0.97,1.23 0.6,0.31 1.17,0.3 1.71,-0.03 0.53,-0.33 1.04,-0.97 1.5,-1.91 1.04,-2.08 1.45,-3.6 1.21,-4.53 -0.26,-0.95 -1.13,-2.75 -2.62,-5.43 -1.49,-2.69 -2.42,-4.56 -2.8,-5.64 -0.38,-1.07 -0.52,-2.34 -0.39,-3.79 0.13,-1.47 0.66,-3.14 1.6,-5.03 1.35,-2.72 2.69,-4.53 4,-5.43 1.31,-0.91 2.89,-1.32 4.76,-1.24 1.87,0.08 3.87,0.68 6.02,1.8 2.35,1.22 4.15,2.65 5.42,4.28 1.26,1.63 1.87,3.18 1.81,4.64 -0.05,1.46 -0.77,3.59 -2.18,6.42l-0.7 1.41zm20.83 -0.99l-16.92 26.82 5.14 3.38 -4.22 6.7 -13.69 -9.01 21.14 -33.52 8.55 5.62zm16.91 11.99l-22.65 32.48 -8.28 -6.02 22.65 -32.48 8.28 6.02zm29.87 25.75l-25.59 30.12 -6.71 -5.94 17.25 -20.36 -19.93 17.98 -4.7 -4.16 14.07 -22.37 -16.9 19.86 -6.71 -5.95 25.58 -30.12 9.91 8.78c-1.27,2.07 -2.78,4.48 -4.53,7.22l-5.41 8.61 13.69 -12.52 9.99 8.84zm19.68 23.57l-24.51 19.8 3.8 4.9 -6.12 4.94 -10.11 -13.05 30.63 -24.74 6.31 8.14zm6.55 8.53l9.81 14.1 -6.36 4.61 -3.92 -5.63 -6.08 4.4 3.66 5.26 -6.03 4.38 -3.66 -5.26 -7 5.08 4.32 6.21 -6.36 4.62 -10.21 -14.67 31.83 -23.1zm22.37 35.88l-30.9 25.1 -5.19 -9.17 5.79 -4.07 -1.83 -3.23 -6.35 3.1 -5.26 -9.29 36.38 -15.41 7.35 12.98zm-24.45 8.09c3.59,-2.7 8.08,-5.94 13.47,-9.77 -7,2.95 -12.06,5.19 -15.19,6.72l1.72 3.05zm26 30.07l-4.19 -9.46 3.23 -1.49c2.04,-0.94 3.28,-1.61 3.71,-2.03 0.44,-0.42 0.51,-0.95 0.22,-1.61 -0.25,-0.56 -0.64,-0.85 -1.18,-0.86 -0.52,-0.01 -1.7,0.42 -3.51,1.25l-17.06 7.88c-1.59,0.73 -2.61,1.32 -3.01,1.76 -0.41,0.44 -0.48,0.96 -0.21,1.58 0.3,0.67 0.78,0.99 1.46,0.97 0.67,-0.02 1.85,-0.42 3.5,-1.18l4.21 -1.95 -0.82 -1.83 5.4 -2.5 4.88 11.02 -19.07 8.81 -2.64 -5.95 2.16 -2.05c-1.39,-0.13 -2.57,-0.56 -3.56,-1.28 -0.99,-0.73 -1.78,-1.75 -2.37,-3.08 -0.7,-1.58 -0.98,-3.23 -0.84,-4.97 0.15,-1.73 0.61,-3.21 1.42,-4.44 0.79,-1.23 1.77,-2.21 2.9,-2.96 1.15,-0.75 2.94,-1.68 5.39,-2.81l10.57 -4.88c3.4,-1.57 5.94,-2.53 7.65,-2.86 1.71,-0.34 3.6,0.08 5.66,1.26 2.07,1.18 3.72,3.17 4.96,5.98 1.22,2.77 1.68,5.31 1.37,7.65 -0.31,2.34 -1.1,4.14 -2.39,5.4 -1.29,1.26 -3.39,2.56 -6.31,3.91l-1.53 0.71zm22.75 26.06l-25.12 7.23c-2.85,0.83 -4.88,1.31 -6.08,1.45 -1.21,0.14 -2.55,-0.07 -4.02,-0.66 -1.47,-0.58 -2.73,-1.55 -3.78,-2.88 -1.05,-1.35 -1.86,-3.05 -2.43,-5.13 -0.63,-2.28 -0.82,-4.41 -0.55,-6.38 0.26,-1.97 0.86,-3.55 1.81,-4.76 0.96,-1.22 2.07,-2.09 3.35,-2.63 1.28,-0.53 4.05,-1.42 8.28,-2.64l22.25 -6.41 2.76 9.99 -28.19 8.12c-1.64,0.47 -2.67,0.86 -3.07,1.17 -0.41,0.31 -0.54,0.74 -0.39,1.28 0.17,0.62 0.54,0.95 1.08,0.98 0.56,0.03 1.77,-0.23 3.64,-0.77l27.7 -7.98 2.76 9.99zm1.94 7.59l3.02 17.01 -7.67 1.42 -1.21 -6.8 -7.33 1.36 1.12 6.35 -7.28 1.35 -1.13 -6.35 -8.45 1.56 1.33 7.49 -7.67 1.42 -3.15 -17.7 38.42 -7.12z"/>
   <path class="fil5" d="M156.44 496.95l-6.56 2.23c-1.83,-1.96 -4.35,-3.83 -7.55,-5.62 -1.28,-0.68 -4.1,-2.02 -8.48,-4.02l1.54 -3.8 0.08 -0.07c4.92,1.72 8.65,3.19 11.17,4.43 4.21,2.07 7.49,4.35 9.82,6.86zm-19.7 22.75l-11.03 10.77 -26.46 -28.45c-2.17,-2.33 -3,-5.08 -2.5,-8.28 0.47,-2.88 1.88,-5.48 4.24,-7.76 1.06,-1.02 2.27,-1.91 3.62,-2.66 1.22,-0.72 2.51,-1.31 3.91,-1.77 2.03,-0.67 3.32,-0.7 3.87,-0.12 0.43,0.47 0.35,1 -0.25,1.58 -0.26,0.25 -0.7,0.53 -1.32,0.82 -0.62,0.3 -1.07,0.58 -1.36,0.87 -0.63,0.61 -1.03,1.43 -1.22,2.48 -0.19,1.05 0.02,1.9 0.64,2.56l20.95 22.52c0.35,-0.85 0.53,-1.34 0.55,-1.48 0.02,-0.13 -0.03,-0.67 -0.15,-1.63 -0.12,-0.96 -0.33,-2.22 -0.64,-3.78 -0.45,-1.95 -0.8,-3.07 -1.05,-3.33 -0.04,-0.05 -0.1,-0.03 -0.17,0.03 -0.17,0.17 -0.41,0.48 -0.73,0.98l-0.15 0.07 -0.07 -0.07c-0.35,-0.97 -0.63,-2.16 -0.86,-3.58 -0.05,-0.6 -0.1,-1.08 -0.13,-1.48 -0.04,-0.77 0.02,-1.24 0.17,-1.43l4.96 -5.65c2.93,0.8 6.25,2.3 9.96,4.48 3.7,2.2 6.6,4.4 8.68,6.63l-6.66 1.98c-2.83,-3.03 -6.47,-5.77 -10.91,-8.18 1.12,3.96 1.76,6.26 1.9,6.91 0.51,2.22 0.73,4.52 0.67,6.91 -0.01,1.23 -0.23,2.28 -0.67,3.18 -0.2,0.46 -0.76,1.37 -1.68,2.68l3.9 4.19zm13.03 1.78c2.65,0.48 4.01,0.75 4.07,0.78l-0.05 0.23c-1.61,1.62 -2.41,2.43 -2.39,2.4 -0.76,0.99 -1.04,2.09 -0.84,3.33 0.2,1.22 0.81,2.24 1.83,3.05l1.96 1.56 -9.37 12.29 -4.23 -3.36c-1.26,-1 -1.85,-2.52 -1.77,-4.56 -0.35,0.45 -1.06,0.59 -2.13,0.42 -1.1,-0.18 -1.89,-0.47 -2.42,-0.89l-9.37 -7.45 9.37 -12.29 6.79 5.4c3.27,2.6 6.12,2.29 8.56,-0.91zm-25.4 10.69l0.95 5.77 -5.72 0.97 -0.97 -5.84 5.73 -0.9zm6.68 4.86l0.99 5.73 -5.72 0.99 -0.99 -5.81 5.73 -0.91zm41.65 -6.21c-1.36,1.95 -3.3,4.99 -5.8,9.11 -2.51,4.12 -4.45,7.18 -5.84,9.16 -0.92,1.32 -2.16,2.98 -3.71,4.96l-13.84 -10.06 8.85 -12.7 9.23 6.71 8.09 -15.73 8.55 -0.45c-1.97,2.83 -3.17,5.71 -3.57,8.63l-1.97 0.37zm-14.42 42.36l-0.2 -0.05c0.01,-0.07 0.01,-0.15 0.01,-0.22l10.16 -24.88c0,0 0.08,-0.13 0.22,-0.4 0.84,-1.49 2.21,-2.41 4.11,-2.74 1.75,-0.27 3.4,0.04 4.92,0.93 0.92,0.53 1.68,1.07 2.29,1.62 2.43,-1.54 4.21,-2.58 5.35,-3.13 2.51,-1.07 4.42,-1.22 5.75,-0.45 2.13,1.25 3.07,3.18 2.8,5.84 -0.09,0.92 -0.75,3.22 -1.97,6.91l3.53 2.05 -7.58 13.59 -2.55 -1.48c-0.69,-0.4 -1.26,-1.25 -1.73,-2.53l-5.46 2.08c-0.57,0.2 -1.07,0.2 -1.46,-0.04 -0.63,-0.37 -1.37,-1.83 -2.23,-4.37 -0.85,-2.54 -1.77,-4.1 -2.75,-4.66 -1.15,-0.67 -2.15,-0.75 -3.01,-0.23l-3.17 7.61c-0.71,1.69 -1.92,2.82 -3.6,3.4 -0.77,0.28 -1.93,0.67 -3.45,1.14zm24.22 -22.17l1.97 7.87c0.31,-0.37 0.74,-1.02 1.26,-1.95 1.87,-3.35 2.12,-5.43 0.73,-6.23 -0.69,-0.41 -2.01,-0.3 -3.96,0.32zm2.61 19.52l6.21 -13.89 5.03 2.32 3.98 1.84 1.1 0.34 5.59 -17.92 5.99 -1.7c-1.69,3.72 -1.89,6.22 -0.6,7.52l-1.61 1.15c-0.18,1.73 -0.54,3.53 -1.08,5.41l-3.12 7.91 2.83 1.64 -2.78 6.41 -3.32 7.49 -18.22 -8.52zm39.5 0.27c0.78,0.26 1.64,0.13 2.59,-0.4 0.55,-0.31 1.25,-0.86 2.1,-1.65 0.68,-0.59 1.07,-0.87 1.16,-0.84 0.16,0.06 0.24,0.26 0.27,0.63 0.12,1.58 0.5,2.86 1.16,3.87 0.86,1.2 1.97,2.05 3.32,2.5 0.26,-1.77 -0.01,-3.69 -0.8,-5.78l6.92 -3.28c0.12,4.25 -0.18,7.51 -0.92,9.8l-4.84 14.99 -6.33 -2.13c-0.85,-0.29 -1.9,-1.32 -3.13,-3.09 -1.45,0.9 -3.27,0.98 -5.48,0.24 -1.85,-0.62 -3.1,-1.72 -3.75,-3.29 -0.96,0.49 -1.7,0.77 -2.2,0.81 -0.62,0.08 -1.42,-0.05 -2.39,-0.38l-10.48 -3.53 4.78 -14.8 8.45 2.84c2.11,0.72 3.9,0.1 5.35,-1.83 0.37,-0.48 0.63,-0.7 0.79,-0.64 0.18,0.06 0.3,0.37 0.32,0.91 0.06,1.35 0.4,2.46 1.05,3.35 0.63,0.89 1.32,1.45 2.04,1.7zm28.53 26.84c-0.68,-0.16 -1.82,-1.09 -3.4,-2.79 -0.93,-1.01 -1.85,-2.04 -2.77,-3.1 -1.64,0.62 -2.73,0.88 -3.28,0.74l-9.5 -2.24 3.43 -15.18 8.48 2c1.09,-0.3 2.45,-1.2 4.07,-2.68 2.17,-2.06 3.53,-3.27 4.08,-3.63 1.65,-1.14 3.22,-1.53 4.71,-1.18 0.87,0.21 1.66,0.66 2.37,1.36 0.7,0.71 1.13,1.5 1.28,2.37 0.14,1.31 0.37,3.28 0.66,5.88 0.29,2.2 1.03,3.72 2.23,4.59 0.52,0.38 0.77,0.66 0.73,0.86 -0.03,0.12 -0.2,0.36 -0.52,0.7l-0.63 0.74 -7.96 9.27c-0.46,0.55 -1.08,1.07 -1.83,1.55 -0.92,0.61 -1.64,0.86 -2.15,0.74zm0.04 -19.16c0.64,1.23 2.23,3.21 4.79,5.92l0.14 -0.59c0.29,-1.29 0.34,-2.61 0.17,-3.97 -0.2,-1.82 -0.81,-2.84 -1.85,-3.09 -0.84,-0.2 -1.92,0.37 -3.25,1.73zm49.49 1.03c-0.1,1.45 -0.61,2.15 -1.5,2.08 -0.33,-0.03 -0.78,-0.28 -1.37,-0.77 -0.58,-0.5 -1.21,-0.76 -1.9,-0.82 -1.26,-0.1 -2.91,0.44 -4.95,1.6 -2.18,1.22 -3.33,2.45 -3.42,3.65 -0.05,0.75 0.83,1.26 2.63,1.53 1.81,0.28 3.63,0.55 5.47,0.83 2.24,0.38 3.69,0.93 4.36,1.66 0.36,0.47 0.52,1.16 0.45,2.07 -0.09,1.21 -0.47,2.85 -1.16,4.9 -0.79,2.15 -1.53,3.58 -2.22,4.31 -5.55,5.44 -11.55,7.91 -17.99,7.41 -8.86,-0.68 -12.99,-5.05 -12.39,-13.08 0.14,-1.86 0.61,-4.21 1.43,-7.07 1.04,-3.72 2.1,-5.54 3.2,-5.45 0.33,0.03 0.54,0.26 0.64,0.71 0.02,0.14 0.03,0.36 0.01,0.66 -0.39,2.52 -0.61,4.08 -0.65,4.69 -0.21,2.8 0.69,5.02 2.69,6.67 1.75,1.43 4.06,2.25 6.89,2.48 2.97,0.23 6.5,-0.5 10.58,-2.18 -0.6,-0.36 -2.08,-0.78 -4.43,-1.29 -2.36,-0.51 -4.03,-1.02 -5.02,-1.54 -1.57,-0.87 -2.3,-2.04 -2.19,-3.53 0.21,-2.76 2.55,-6.45 7.01,-11.08 4.46,-4.63 8.02,-6.84 10.66,-6.63l0.3 0.02c1.52,0.12 2.45,1.21 2.8,3.28 0.22,1.03 0.25,2.65 0.09,4.88zm22.86 5.25l0.32 15.58 -4.83 0.1c-0.58,2.35 -1.64,4.64 -3.18,6.87 -1.87,2.78 -3.79,4.2 -5.78,4.24 -1.09,0.03 -3.24,-0.75 -6.46,-2.35 -3.32,-1.59 -4.98,-2.77 -5,-3.55l0.25 -0.36c0.09,-0.11 0.82,-0.18 2.18,-0.21 2.51,-0.06 5.21,-1.11 8.08,-3.17 2.75,-1.95 4.76,-4.12 6.03,-6.53 -0.73,-1.74 -1.64,-3.23 -2.72,-4.45 -0.45,-0.5 -1.72,-1.76 -3.81,-3.78 1.09,-1.78 2.8,-4.4 5.1,-7.83 1.16,1.23 2.26,3.08 3.3,5.56l6.51 -0.14zm-11.26 -17.78l4.3 3.92 -3.74 4.4 -4.45 -3.81 3.89 -4.51zm9.99 33.41l-1.16 -15.54 17.2 -1.33c-0.47,-0.87 -0.71,-1.34 -0.75,-1.37 -0.11,-0.15 -0.56,-0.49 -1.37,-1.01 -0.8,-0.51 -1.89,-1.14 -3.27,-1.88 -1.77,-0.88 -2.83,-1.31 -3.19,-1.28 -0.09,0.01 -0.14,0.06 -0.13,0.17 0.02,0.23 0.13,0.63 0.34,1.2l-0.04 0.15 -0.15 0.01c-0.93,-0.34 -2,-0.86 -3.21,-1.58 -0.48,-0.33 -0.9,-0.61 -1.25,-0.82 -0.57,-0.47 -0.88,-0.82 -0.93,-1.05l-1.15 -7.5c2.45,-1.82 5.68,-3.5 9.69,-5.05 4.01,-1.55 7.51,-2.44 10.52,-2.68l-2.7 6.52c-4.1,0.32 -8.47,1.47 -13.1,3.46 3.71,1.61 5.85,2.56 6.44,2.86 1.97,1 3.86,2.28 5.67,3.83 1.02,0.91 1.71,1.75 2.04,2.55 0.31,1.06 0.61,2.1 0.93,3.13 0.97,2.85 1.7,7.41 2.17,13.73 0.09,1.15 -0.45,1.77 -1.61,1.86l-20.96 1.62zm46.31 -21.99l2.62 15.35 -5.73 1.02c-0.23,2.4 -0.94,4.84 -2.13,7.28 -1.43,3.05 -3.13,4.74 -5.09,5.08 -1.08,0.2 -3.32,-0.25 -6.73,-1.32 -3.51,-1.06 -5.34,-1.96 -5.47,-2.73l0.2 -0.4c0.07,-0.12 0.78,-0.3 2.13,-0.54 2.47,-0.44 4.98,-1.89 7.52,-4.38 2.43,-2.35 4.1,-4.81 5,-7.38 -0.98,-1.61 -2.1,-2.94 -3.35,-3.99 -0.51,-0.42 -1.96,-1.47 -4.33,-3.15 0.82,-1.93 2.11,-4.77 3.89,-8.51 1.32,1.03 2.68,2.69 4.08,4.98l7.4 -1.31zm20.33 13.13c-0.67,0.2 -2.1,-0.05 -4.29,-0.75 -1.29,-0.42 -2.59,-0.87 -3.89,-1.34 -1.14,1.35 -1.98,2.11 -2.51,2.27l-9.37 2.75 -4.2 -14.98 8.36 -2.45c0.81,-0.79 1.57,-2.25 2.29,-4.37 0.93,-2.87 1.55,-4.6 1.86,-5.19 0.9,-1.81 2.09,-2.93 3.56,-3.36 0.86,-0.25 1.77,-0.25 2.73,0.02 0.95,0.27 1.7,0.75 2.23,1.43 0.75,1.08 1.88,2.69 3.37,4.82 1.29,1.78 2.67,2.75 4.13,2.91 0.64,0.07 0.99,0.19 1.04,0.39 0.04,0.12 -0.01,0.41 -0.11,0.87l-0.2 0.96 -2.56 12.05c-0.15,0.71 -0.44,1.46 -0.87,2.26 -0.52,0.98 -1.02,1.56 -1.53,1.7zm-9.06 -16.78c1.15,0.76 3.47,1.7 7,2.81l-0.17 -0.58c-0.36,-1.28 -0.93,-2.46 -1.73,-3.56 -1.04,-1.5 -2.06,-2.08 -3.08,-1.78 -0.83,0.24 -1.5,1.27 -2.02,3.12zm24.21 -21.02l5.36 2.17 -2.12 5.48 -5.38 -2.06 2.14 -5.58zm-0.71 18.96c0.71,1.87 1.84,3.2 3.37,4.01 1.53,0.8 3.21,0.84 5.03,0.12 2.87,-1.14 5.33,-3.89 7.35,-8.26 -1.02,-1.38 -2.11,-2.47 -3.27,-3.27 -0.4,-0.32 -1.75,-1.13 -4.03,-2.43l4.05 -8.41c3.89,3.3 6.89,7.73 9,13.24 1.86,4.86 2.23,9.19 1.13,13.01 -1.2,4.25 -4.1,7.3 -8.73,9.14 -3.49,1.39 -6.72,1.11 -9.7,-0.83 -2.78,-1.77 -4.86,-4.48 -6.26,-8.13 -0.78,-2.05 -1.28,-4.19 -1.49,-6.43 -0.44,-4.11 -0.06,-6.41 1.1,-6.88 0.71,-0.28 1.24,0.02 1.58,0.9 0.13,0.35 0.27,1.02 0.4,2.03 0.14,1 0.29,1.74 0.47,2.2zm15.26 -38.31l9.32 17.42c0.74,1.39 1.35,2.17 1.82,2.32 0.47,0.15 1.34,-0.12 2.64,-0.8l7.01 13.84 -3.66 1.94c-1.03,0.54 -2.23,0.47 -3.58,-0.23 -1.24,-0.6 -2.16,-1.47 -2.77,-2.6l-13.82 -25.43 3.05 -6.46zm22.98 6.61c0.47,-0.79 1.2,-1.96 2.16,-3.49l0.09 -0.05c0.06,-0.04 0.15,0.01 0.26,0.14 0.13,0.23 0.31,0.71 0.53,1.42 0.23,0.7 0.46,1.28 0.71,1.71 0.63,1.13 1.53,1.81 2.71,2.08 1.18,0.26 2.32,0.07 3.45,-0.59l2.15 -1.26 7.59 13.51 -4.66 2.73c-1.38,0.82 -2.98,0.79 -4.78,-0.06 0.28,0.5 0.12,1.24 -0.46,2.2 -0.58,0.97 -1.15,1.61 -1.69,1.93l-11.01 6.44 -7.59 -13.52 8.11 -4.75c3.59,-2.1 4.4,-4.91 2.42,-8.44zm-16.04 -8.17l5.6 1.29 -1.28 5.79 -5.66 -1.31 1.35 -5.76zm6.94 -4.47l5.55 1.31 -1.24 5.76 -5.65 -1.31 1.34 -5.76zm34.15 3.03c0.67,-0.48 1.08,-1.27 1.21,-2.37 0.09,-0.65 0.06,-1.55 -0.05,-2.7 -0.07,-0.91 -0.05,-1.39 0.02,-1.45 0.14,-0.1 0.36,-0.04 0.66,0.15 1.31,0.84 2.55,1.28 3.74,1.34 1.46,0.01 2.78,-0.4 3.94,-1.24 -1.24,-1.25 -2.91,-2.18 -5.03,-2.77l1.52 -7.64c3.43,2.42 5.82,4.61 7.18,6.56l8.95 12.87 -5.43 3.94c-0.73,0.53 -2.16,0.77 -4.29,0.74 -0.14,1.73 -1.16,3.27 -3.06,4.65 -1.59,1.15 -3.2,1.53 -4.82,1.13 -0.18,1.08 -0.4,1.85 -0.67,2.29 -0.31,0.55 -0.88,1.13 -1.71,1.74l-9 6.52 -8.83 -12.71 7.26 -5.26c1.81,-1.32 2.39,-3.15 1.74,-5.49 -0.17,-0.59 -0.18,-0.93 -0.04,-1.03 0.16,-0.12 0.47,-0.03 0.92,0.27 1.09,0.75 2.18,1.12 3.26,1.12 1.07,0.01 1.93,-0.22 2.55,-0.67zm21.1 2.88l-10.51 -11.3 12.5 -12.13c-0.9,-0.38 -1.37,-0.57 -1.42,-0.57 -0.18,-0.05 -0.75,-0.02 -1.69,0.09 -0.94,0.13 -2.18,0.34 -3.71,0.66 -1.91,0.45 -3,0.8 -3.26,1.07 -0.07,0.07 -0.07,0.13 0,0.21 0.16,0.17 0.48,0.41 1,0.71l0.07 0.15 -0.1 0.1c-0.93,0.34 -2.08,0.62 -3.48,0.85 -0.58,0.05 -1.08,0.12 -1.47,0.17 -0.73,0.01 -1.19,-0.07 -1.37,-0.21l-5.53 -5.07c0.77,-2.99 2.24,-6.38 4.38,-10.17 2.15,-3.79 4.32,-6.74 6.5,-8.86l1.94 6.79c-2.98,2.89 -5.65,6.61 -8.01,11.14 3.87,-1.15 6.13,-1.8 6.76,-1.94 2.15,-0.49 4.4,-0.72 6.77,-0.69 1.36,0.04 2.41,0.25 3.15,0.66 0.9,0.63 1.78,1.24 2.66,1.83 2.52,1.58 5.91,4.65 10.18,9.24 0.78,0.83 0.74,1.66 -0.1,2.48l-15.24 14.79zm-2.76 -51.59l14.34 13.4c1.14,1.08 1.96,1.61 2.46,1.61 0.49,-0.01 1.23,-0.56 2.24,-1.63l11.02 10.78 -2.85 3.05c-0.8,0.85 -1.96,1.18 -3.46,0.97 -1.37,-0.16 -2.51,-0.67 -3.45,-1.53l-21.14 -19.5 0.84 -7.13zm26.59 4.33c-1.59,-0.82 -3.86,-1.23 -6.82,-1.25l-0.36 -8.5c4.57,1.85 8.05,3.81 10.44,5.91l11.55 10.18 -12.31 14.57 -11.55 -10.19 9.07 -10.72zm5.49 21.47l5.7 -0.68 0.66 5.88 -5.76 0.7 -0.59 -5.9zm5.09 -6.56l5.66 -0.72 0.67 5.88 -5.72 0.72 -0.61 -5.88zm3.27 7.76l5.7 -0.68 0.67 5.89 -5.77 0.68 -0.59 -5.9z"/>
  </g>
 </g>
</svg>
