<?xml version="1.0" encoding="UTF-8"?>
<svg id="Layer_2" data-name="Layer 2" xmlns="http://www.w3.org/2000/svg" viewBox="0 0 445.51 422.16">
  <defs>
    <style>
      .cls-1 {
        fill: #00699c;
      }

      .cls-2 {
        fill: #0095da;
      }

      .cls-2, .cls-3, .cls-4, .cls-5, .cls-6 {
        fill-rule: evenodd;
      }

      .cls-3, .cls-7 {
        fill: #ed1c24;
      }

      .cls-4 {
        fill: #fff200;
      }

      .cls-8 {
        fill: none;
        stroke: #f58220;
        stroke-linecap: round;
        stroke-linejoin: round;
        stroke-width: 2px;
      }

      .cls-5 {
        fill: #007c40;
      }

      .cls-6 {
        fill: #88ac2e;
      }
    </style>
  </defs>
  <g id="Layer_1-2" data-name="Layer 1">
    <g>
      <g>
        <path class="cls-5" d="m67.89,312.87c-14.95-10.27-29.68-29.32-31.49-48.11C25.6,152.04,171.43,134.19,204.12,30.4c1.06-3.35,3.47-10.91,4.81-16.07,1.27,17.22,10.92,35.46,22.33,51.22,16.73,23.11,40.16,44.16,63.37,60.97,2.59,1.88,15.23,10.8,22.92,16.49l13.55-4c-10.8-5.64-34.7-22.44-43.56-29.31-18.79-14.58-37.79-32.17-50.25-47.09-14.98-17.95-19.54-29.44-28.5-62.62-15.29,60.39-37.08,77.49-85.83,113.68C74.52,149.62,3.85,192.66,19.04,265.91c.25,1.18.94,3.72,1.76,6.4,6,19.64,25.42,40.55,47.09,40.56"/>
        <path class="cls-5" d="m329.96,42.51c-.42-1.9-1.74-8.9-2.61-9.91-4.15,14.18-5.6,22.66-16.12,34.61-6.52,7.41-14.89,15.25-21.42,20.88-2.5,2.16-9.74,7.63-11.97,9.35l5.41,4.93c13.34-10.79,34.49-30.13,41.01-47.5,1.48-3.96,1.88-7.87,3.19-11.97.03,23.3,41.92,60.58,60.56,70.12l4.33-3.4c-19.11-13.62-56.81-41.44-62.41-67.12"/>
        <path class="cls-3" d="m396.91,213.21l-.3-9.22c-.03-1.3-.13-2.27-.6-3.09-1.31-2.31-4.93-6.36-6.95-8.17-1.46.09-7.66,8.61-7.72,11.99l.23,9.14,4.17-.18-.23-9.77c.33-.72,2.7-3.56,2.92-3.75.91-.76,3.08,2.06,3.78,3.06.55.77.41,1.59.46,3.71l.2,6.45,4.03-.17Z"/>
        <path class="cls-3" d="m396.89,212.3l.18,9.22c.04,1.29-.02,2.28-.44,3.13-1.19,2.41-4.59,6.77-6.52,8.74-1.46.03-8.08-7.94-8.31-11.31l-.23-9.14,4.17-.18.27,9.77c.36.69,2.87,3.32,3.11,3.49.95.68,2.96-2.32,3.62-3.37.51-.82.32-1.62.27-3.74l-.13-6.45,4.03-.17Z"/>
        <path class="cls-3" d="m381.51,171.67l-.15,9.22c-.04,1.29.03,2.28.45,3.13,1.2,2.41,4.61,6.74,6.55,8.71,1.46.03,8.06-7.98,8.28-11.35l.2-9.14-4.17-.16-.24,9.77c-.36.69-2.86,3.34-3.1,3.51-.95.69-2.97-2.31-3.63-3.35-.51-.82-.33-1.62-.28-3.74l.11-6.45-4.03-.15Z"/>
        <path class="cls-3" d="m381.49,172.58l.27-9.22c.02-1.3.13-2.27.59-3.09,1.31-2.31,4.91-6.39,6.93-8.21,1.46.08,7.69,8.57,7.75,11.95l-.2,9.14-4.17-.16.2-9.77c-.33-.72-2.71-3.55-2.93-3.73-.91-.76-3.07,2.08-3.77,3.08-.55.78-.4,1.6-.45,3.71l-.18,6.45-4.03-.15Z"/>
        <path class="cls-3" d="m375.28,209.6l7.85-4.84c1.11-.67,1.9-1.25,2.38-2.06,1.35-2.29,3.06-7.44,3.63-10.1-.81-1.22-11.28-2.36-14.24-.72l-7.81,4.75,2.23,3.53,8.36-5.06c.78-.07,4.43.57,4.71.67,1.11.41-.26,3.7-.77,4.8-.4.86-1.18,1.14-2.99,2.24l-5.49,3.38,2.15,3.41Z"/>
        <path class="cls-3" d="m376.06,209.13l-7.91,4.74c-1.1.68-1.98,1.12-2.94,1.18-2.69.17-8.15-.62-10.83-1.31-.76-1.25,2.87-10.96,5.67-12.84l7.81-4.75,2.23,3.53-8.34,5.09c-.42.66-1.45,4.15-1.48,4.43-.12,1.16,3.49,1.41,4.72,1.46.96.03,1.57-.53,3.38-1.63l5.53-3.32,2.16,3.41Z"/>
        <path class="cls-3" d="m403.65,175.57l-8.07,4.46c-1.14.61-1.96,1.16-2.49,1.95-1.49,2.24-3.55,7.36-4.3,10.01.71,1.28,10.93,3.02,13.96,1.53l8.03-4.37-1.94-3.7-8.59,4.65c-.78.03-4.32-.82-4.58-.94-1.07-.48.52-3.73,1.1-4.81.45-.85,1.24-1.09,3.1-2.1l5.65-3.11-1.87-3.57Z"/>
        <path class="cls-3" d="m402.85,176.01l8.13-4.36c1.13-.63,2.03-1.02,2.97-1.03,2.66-.02,7.98,1.08,10.57,1.93.66,1.31-3.61,10.93-6.51,12.67l-8.03,4.37-1.94-3.7,8.57-4.69c.46-.64,1.73-4.12,1.78-4.4.2-1.17-3.33-1.63-4.55-1.74-.94-.09-1.58.44-3.44,1.46l-5.68,3.05-1.87-3.57Z"/>
        <path class="cls-3" d="m367.65,189.04l8.11,4.4c1.13.63,2.03,1.03,2.97,1.04,2.65.03,7.98-1.04,10.56-1.88.66-1.31-3.57-10.96-6.46-12.71l-8.01-4.41-1.95,3.69,8.55,4.73c.46.64,1.71,4.13,1.76,4.41.2,1.17-3.33,1.61-4.55,1.72-.94.08-1.58-.45-3.43-1.48l-5.67-3.08-1.88,3.57Z"/>
        <path class="cls-3" d="m368.45,189.48l-8.05-4.5c-1.14-.62-1.96-1.17-2.48-1.96-1.48-2.25-3.52-7.38-4.26-10.04.71-1.28,10.93-2.97,13.96-1.47l8.01,4.41-1.95,3.69-8.57-4.7c-.78-.04-4.32.8-4.58.92-1.07.48.51,3.73,1.09,4.82.45.85,1.24,1.1,3.09,2.12l5.63,3.14-1.88,3.57Z"/>
        <path class="cls-3" d="m411.28,196.72l-7.89-4.78c-1.1-.68-1.98-1.13-2.93-1.19-2.68-.18-8.15.58-10.82,1.26-.76,1.25,2.83,10.98,5.62,12.87l7.79,4.79,2.24-3.52-8.31-5.14c-.41-.66-1.44-4.16-1.47-4.44-.11-1.16,3.49-1.4,4.73-1.44.96-.03,1.57.53,3.37,1.64l5.51,3.35,2.16-3.4Z"/>
        <path class="cls-3" d="m410.5,196.24l7.82,4.88c1.11.67,1.9,1.26,2.37,2.07,1.34,2.29,3.04,7.46,3.59,10.12-.81,1.22-11.28,2.31-14.23.66l-7.79-4.79,2.24-3.52,8.33,5.1c.78.08,4.43-.55,4.7-.65,1.11-.41-.25-3.7-.75-4.81-.39-.86-1.17-1.15-2.98-2.26l-5.48-3.41,2.16-3.4Z"/>
        <path class="cls-3" d="m389.21,188.14c2.54,0,4.59,2.06,4.59,4.59s-2.06,4.59-4.59,4.59-4.59-2.06-4.59-4.59,2.06-4.59,4.59-4.59"/>
        <g>
          <line class="cls-8" x1="211.84" y1="203.73" x2="214.19" y2="187.05"/>
          <line class="cls-8" x1="200.62" y1="201.38" x2="200.61" y2="177.27"/>
          <line class="cls-8" x1="220.87" y1="208.19" x2="231.8" y2="187.38"/>
          <line class="cls-8" x1="180.69" y1="208.19" x2="169.76" y2="187.38"/>
          <line class="cls-8" x1="188.74" y1="203.62" x2="186.7" y2="189.11"/>
        </g>
        <path class="cls-1" d="m445.51,381.51h-44.21v-155.17h13.65v141.51c1.74-.44,3.26-1.52,4.77-3.48.87-1.51,1.74-2.81,2.82-4.33h3.91c0,1.51,1.08,3.47,3.03,6.07,2.17,2.6,4.33,4.55,7.15,5.85,2.6,1.3,4.99,2.82,6.72,4.55.65.65,1.3,1.3,2.17,2.17v2.82Z"/>
        <path class="cls-1" d="m426.06,138.71c-1.95,1.73-3.69,3.46-4.77,5.42-1.95,3.47-3.04,7.59-3.04,12.14v4.98c-3.03,0-5.63.87-8.23,2.17-2.38,1.51-4.33,3.46-5.42,5.85v-53.53h2.82c.65.44,1.09.87,1.3,1.08,1.95,1.95,3.91,4.55,5.41,7.8,1.3,2.6,3.26,4.98,6.07,7.15,2.39,1.95,4.34,3.03,5.85,3.03v3.9Z"/>
        <path class="cls-1" d="m377.71,170.46c-1.09-2.38-3.04-4.12-5.42-5.63-2.61-1.52-5.21-2.38-8.24-2.38v-7.15c0-3.47-.65-6.72-1.95-9.75-1.3-3.03-3.26-5.63-5.86-7.8v-4.12c1.52,0,3.47-.87,6.07-3.03,2.6-1.96,4.56-4.33,5.86-7.15,1.3-2.6,2.82-4.98,4.55-6.93.65-.43,1.3-1.08,2.17-1.95h2.82v55.91Z"/>
        <polygon class="cls-1" points="364.06 367.85 364.06 221.74 377.71 221.74 377.71 381.51 346.5 381.51 346.5 367.85 364.06 367.85"/>
        <path class="cls-1" d="m316.38,267.08c0,2.82-1.08,5.2-3.03,7.15-1.95,1.95-4.33,3.03-7.15,3.03-3.03,0-5.42-1.08-7.36-3.03-1.96-1.95-3.04-4.33-3.04-7.15s1.08-5.42,3.04-7.37c1.95-1.95,4.33-3.03,7.36-3.03,2.82,0,5.2,1.08,7.15,3.03,1.95,1.95,3.03,4.55,3.03,7.37Zm26.87,0c0,2.82-1.08,5.2-3.03,7.15-1.95,1.95-4.33,3.03-7.15,3.03-3.03,0-5.42-1.08-7.37-3.03-1.95-1.95-3.03-4.33-3.03-7.15s1.08-5.42,3.03-7.37c1.95-1.95,4.33-3.03,7.37-3.03,2.82,0,5.2,1.08,7.15,3.03,1.95,1.95,3.03,4.55,3.03,7.37Zm-10.19,73.46v-30.77c-4.55,1.73-8.02,3.25-10.84,4.33-2.6,1.3-4.98,3.03-7.15,4.98-6.07,5.85-9.1,13-9.1,21.45h27.09Zm21.02,40.96h-7.37c0,8.23-1.73,14.74-5.42,19.5-3.9,4.98-9.75,7.59-17.55,7.59s-13.44-2.38-17.34-7.59c-3.68-4.55-5.42-11.05-5.42-19.5h-22.11v-13.65h35.54v13.65c0,4.12.87,7.37,2.6,9.75,1.73,2.38,3.9,3.68,6.72,3.68,2.6,0,4.77-1.3,6.72-3.68,1.73-2.38,2.6-5.85,2.6-9.97v-27.09h-40.52v-11.48c0-7.15.87-13.44,2.82-18.85,2.17-5.2,5.63-9.97,10.62-14.3,3.47-3.03,8.23-5.85,14.09-8.45,8.02-3.47,12.35-5.42,12.79-5.85,4.33-2.38,6.93-5.2,8.45-8.67h5.42v81.27h7.37v13.65Z"/>
        <path class="cls-1" d="m287.12,381.51h-102.94c0,1.3.65,2.6,1.95,4.33,1.3,1.73,3.25,3.68,5.85,5.85v3.9c-1.52,0-3.47,1.08-6.07,3.03-2.6,1.95-4.55,4.34-5.85,6.94-1.3,2.82-2.82,4.98-4.55,6.93-.65.43-1.3,1.3-2.17,1.95h-2.82v-46.59h94.7v-27.09c0-4.33-.43-7.58-1.52-9.97-1.08-2.38-2.82-3.47-5.2-3.47-2.6,0-4.33,1.08-5.42,3.25-1.09,2.38-1.52,5.63-1.52,10.18v13.44h-81.05v-46.81h2.82c.65.43,1.08.87,1.3,1.08,1.95,1.96,3.9,4.56,5.42,8.02,1.3,2.38,3.25,4.77,6.07,6.94,2.38,2.17,4.33,3.03,5.85,3.03v4.12c-2.82,2.17-4.33,3.47-4.77,3.9-1.95,2.17-3.03,4.12-3.03,6.07h54.18c0-8.67,1.3-14.95,4.12-19.29,3.25-4.99,8.45-7.58,16.04-7.58s13,2.6,16.04,7.58c3.03,4.33,4.33,10.83,4.33,19.5v27.09h8.24v13.65Z"/>
        <path class="cls-1" d="m97.14,381.51v13.44c0,8.02-2.6,14.52-7.59,19.5-4.98,4.99-11.49,7.59-19.5,7.59l-17.04-.11c-3.24.34-6.53.31-9.82-.06h-1.02s0-.14,0-.14c-28.55-3.88-55.85-33.84-34.59-75.87,5.51-10.15,15.67-23.39,7.85-34.96-8.29-12.6,16.88-5.39,16.88,15.39v3.99c0,.37,0,.83.03,1.4.04.53.11,1.17.19,1.86.07.72.64,1.06,1.74,1.06,6.19,0,9.83-.16,13.96,5.8,1.33,1.94,2.01,3.75,2.01,5.42,0,.61-.15,1.25-.45,2.01-.07.57-.42.87-.99.87-31.84-6.81-44.19,29.24-25.7,49.27,18.04,19.53,55.54,13.54,60.4-10.28v-22c0-4.12-1.08-8.02-3.03-11.7-1.52-2.6-3.03-4.55-4.77-5.85v-4.12c1.52,0,3.47-1.08,6.07-3.03,2.6-1.95,4.55-4.33,5.85-7.15,1.3-2.6,2.82-4.98,4.55-6.72.65-.65,1.3-1.3,2.17-2.17h2.82v42.91h19.07v-14.52c0-4.12-1.08-8.02-3.03-11.7-1.52-2.6-3.03-4.55-4.77-6.07v-3.9c1.52,0,3.47-1.08,6.07-3.03,2.6-2.17,4.55-4.55,5.85-7.15,1.3-2.82,2.82-4.99,4.55-6.94.65-.65,1.3-1.3,2.17-1.95h2.82v68.7c0,4.55.44,8.02,1.52,10.18.87,2.38,2.6,3.47,5.2,3.47,2.38,0,4.12-1.08,5.2-3.47,1.08-2.17,1.52-5.63,1.52-10.18v-41.61c0-3.47-.65-6.93-1.95-9.97-1.3-3.03-3.25-5.42-5.85-7.58v-4.12c1.52,0,3.47-1.09,6.07-3.03,2.6-1.95,4.55-4.33,5.85-7.16,1.3-2.6,2.82-4.98,4.55-6.93.65-.43,1.3-1.08,2.17-1.95h2.82v82.57c0,8.67-1.3,15.17-4.12,19.5-3.25,4.98-8.67,7.59-16.25,7.59s-12.79-2.38-16.04-7.59c-2.82-4.33-4.33-10.84-4.33-19.5h-19.07Z"/>
        <path class="cls-4" d="m200.86,207.5c7.87,0,14.6,5.01,17.31,12.09l-17.46,9.45-17.33-9c2.6-7.31,9.44-12.54,17.48-12.54"/>
        <path class="cls-2" d="m320.62,217.82l-10.25,9.73-109.58,3.46c32.01-15.38,86.14-17.01,119.83-13.18"/>
        <g>
          <path class="cls-6" d="m300.62,200.79l-9.45,11.52c-39.04.36-70.79,6.51-90.38,16.77,17.63-17.04,52.18-25.58,99.83-28.29"/>
          <path class="cls-6" d="m102.24,200.79l10.12,11.52c41.84.36,67.43,6.51,88.42,16.77-18.89-17.04-47.48-25.58-98.55-28.29"/>
        </g>
        <path class="cls-2" d="m80.81,217.82l10.98,9.73,109,3.46c-34.31-15.38-83.88-17.01-119.98-13.18"/>
        <path class="cls-3" d="m276.55,46.66l2.94,1.76,2.94,1.77v12.63l-2.94,1.77-2.94,1.77-2.94-1.77-2.94-1.77v-12.63l2.94-1.77,2.94-1.76Zm-.46-21.05h.92c.76,0,1.39-.65,1.39-1.44v-3.1c0-.62-.38-1.15-.92-1.36-.16.16-.39.26-.63.26h-.6c-.24,0-.47-.1-.63-.26-.53.2-.92.73-.92,1.36v3.1c0,.79.62,1.44,1.39,1.44Zm-5.42,10.79v-3.53l2.94-1.76,2.94-1.77,2.94,1.77,2.94,1.76v7.27l-2.94,1.77-2.94,1.77-2.94-1.77-2.94-1.77v-3.74Zm-3.61,55c0-12.81.02-8.05.02-20.85l2.45-1.55,2.45-1.55-2.45-1.55-2.45-1.55v-16.18l2.45-1.55,2.45-1.55-2.45-1.55-2.45-1.55v-11.61l4.74-2.77,3.43-2c.24.19.53.3.85.3h.92c.32,0,.61-.11.85-.3l3.43,2,4.74,2.77v11.61l-2.45,1.55-2.45,1.55,2.45,1.55,2.45,1.55v16.18l-2.45,1.55-2.45,1.55,2.45,1.55,2.45,1.55v19.55l-3.59,2.76v-20.36l-2.94-1.77-2.94-1.76-2.94,1.76-2.94,1.77c0,13.93-.08,11.27-.08,22.33l-3.54-3.43Z"/>
        <path class="cls-3" d="m282.89,13.21c-.8,1.38-2.09,2.46-3.71,2.92-.5.14-1,.21-1.5.22.05.12.08.25.08.39v2.03c0,.52-.41.94-.91.94h-.6c-.5,0-.91-.42-.91-.94v-2.03c0-.28.11-.52.3-.7-1.92-.65-3.5-2.25-4.06-4.42-.7-2.67.35-5.4,2.41-6.92-.83,1.44-1.12,3.21-.66,4.96.89,3.42,4.29,5.44,7.6,4.51.73-.2,1.39-.53,1.97-.96Z"/>
      </g>
      <g>
        <g>
          <path class="cls-7" d="m92.14,282.63h-1.41c-3.1,0-5.64-2.01-7.61-6.03-.7,1.23-1.36,2.28-2,3.14-.63.86-1.25,1.53-1.85,2-1.44,1.15-3.26,1.73-5.45,1.73-4.96,0-7.45-2.91-7.45-8.73,0-1.25.18-2.58.54-3.99.49-1.96,1.16-2.94,2.02-2.94.91,0,1.49.45,1.75,1.34.45,1.49.75,2.32.88,2.48.65.89,1.83,1.34,3.55,1.34.63,0,1.28-.06,1.93-.17.66-.11,1.25-.26,1.78-.44.53-.18.96-.39,1.3-.63s.51-.5.51-.78c0-.08-.02-.19-.07-.32l-4.04-9.66,5.4-5.45c.26-.26.45-.39.58-.39.11,0,.24.19.39.58l4.57,12.58c.8,2.21,1.98,3.31,3.55,3.31h1.12v11.05Z"/>
          <path class="cls-7" d="m123.67,282.63h-5.28c-4.36,0-7.22-2.5-8.56-7.49-1.75,2.34-4.12,4.19-7.11,5.57-2.82,1.28-5.77,1.92-8.86,1.92h-3.41v-11.05h5.18c4.69,0,8.81-.84,12.36-2.53-4.22-1.27-6.88-1.9-7.98-1.9-1.02,0-1.96.43-2.82,1.29s-1.57,1.29-2.12,1.29c-.92,0-1.39-.66-1.39-2,0-1.44.62-3.28,1.87-5.5,1.61-2.84,3.56-4.26,5.86-4.26,1.23,0,3.68.62,7.35,1.87,3.7,1.25,6.59,1.87,8.69,1.87h4.04c.58,0,.88.12.88.37,0,.11-.07.39-.19.83l-3.6,7.45h-4.53c.76.81,2.29,1.22,4.6,1.22h5.01v11.05Z"/>
          <path class="cls-7" d="m152.09,282.6h-1.05c-1.61,0-3.14-1.05-4.6-3.16-1.56,2.11-2.98,3.16-4.26,3.16-.39,0-.79-.09-1.2-.26-.41-.17-.81-.41-1.19-.71s-.73-.65-1.05-1.05c-.32-.4-.57-.82-.77-1.25-1.49,2.17-2.85,3.26-4.06,3.26-1.83,0-3.28-1.09-4.33-3.26-1.46,2.22-3.04,3.33-4.74,3.33h-2.87v-10.97h2.82c1.22,0,2.07-.5,2.56-1.48l.41-1.56.49-1.34.58-.97.9-.37c.81,0,1.35.5,1.61,1.48.03.11.1.39.21.84.11.45.26,1.08.47,1.91.39.99,1.14,1.48,2.24,1.48.44,0,.78-.07,1.03-.22.25-.15.46-.38.63-.71s.32-.75.45-1.29c.13-.54.3-1.18.51-1.95.26-.97.79-1.46,1.61-1.46.37,0,.66.08.86.23.2.15.37.39.5.72.13.32.25.75.35,1.28.11.53.24,1.16.4,1.89.34.96.98,1.44,1.92,1.44s1.61-.47,1.95-1.41l.22-1.09.36-1.56c.21-.94.76-1.41,1.65-1.41.75,0,1.25.47,1.51,1.41l.19.75.49,1.9c.41.94,1.13,1.41,2.17,1.41h1.02v10.97Z"/>
          <path class="cls-7" d="m171.14,274.99c0,1.07-.19,2.08-.57,3.03s-.9,1.78-1.56,2.48c-.66.71-1.43,1.27-2.31,1.68s-1.84.62-2.86.62c-2.64,0-4.81-1.28-6.5-3.84-1.12,2.45-2.61,3.67-4.48,3.67h-2.48v-11.05h1.73c2.06,0,3.12-.64,3.19-1.92.06-1.1.28-2.11.64-3.02.37-.91.86-1.69,1.48-2.34.62-.65,1.37-1.15,2.23-1.51.86-.36,1.82-.54,2.87-.54,3.08,0,5.39,1.62,6.93,4.87,1.12,2.37,1.68,4.99,1.68,7.86Zm-3.84-1.97c0-1.02-.28-2.14-.85-3.36-.68-1.44-1.48-2.17-2.38-2.17-.49,0-.89.19-1.22.58-.32.39-.49.83-.49,1.31,0,.71.09,1.42.27,2.12s.43,1.32.75,1.87c.32.55.7,1,1.13,1.34.43.34.9.51,1.42.51.91,0,1.36-.74,1.36-2.21Z"/>
          <path class="cls-7" d="m211.73,282.63h-2.14c-1.15,0-9.66-.22-10.66-.66s-1.88-1.05-2.66-1.84c-.78-.79-1.43-1.73-1.96-2.82-.53-1.09-.89-2.29-1.08-3.59-.88.41-1.68.93-2.42,1.58-.74.65-1.38,1.37-1.91,2.17-.54.8-.95,1.64-1.25,2.54-.3.9-.45,1.81-.45,2.71,0,1.27.26,2.4.77,3.39s1.24,1.84,2.19,2.53c.95.69,2.1,1.22,3.47,1.58,1.36.37,2.9.55,4.6.55.11,0,.28,0,.5-.01s.45-.02.71-.02.49-.02.72-.02c.23,0,.4-.01.51-.01,2.25,0,3.38.53,3.38,1.58,0,2.08-3.8,3.11-11.39,3.11-10.71,0-16.06-3.84-16.06-11.51,0-3.03.92-5.57,2.77-7.62,1.49-1.67,3.46-2.97,5.91-3.89.6-.23,1.36-.49,2.27-.78.92-.29,1.99-.66,3.22-1.1-1.19-1.56-2.26-2.59-3.21-3.09-.11-.07-.68-.24-1.7-.54-.32-.1-.49-.45-.49-1.05,0-1.53.76-2.94,2.29-4.26,1.75-1.51,3.94-2.26,6.57-2.26,1.01,0,1.97.14,2.88.41s1.72.67,2.41,1.17c.69.5,1.24,1.1,1.65,1.79.41.69.62,1.46.62,2.3,0,1.12-.54,2.26-1.63,3.41l-.75.75-1.82,1.8c.81.42,1.95.63,3.41.63h10.75v11.05Z"/>
          <path class="cls-7" d="m230.78,274.99c0,1.07-.19,2.08-.57,3.03s-.9,1.78-1.56,2.48c-.66.71-1.43,1.27-2.31,1.68s-1.84.62-2.86.62c-2.64,0-4.81-1.28-6.5-3.84-1.12,2.45-2.61,3.67-4.48,3.67h-2.48v-11.05h1.73c2.06,0,3.12-.64,3.19-1.92.06-1.1.28-2.11.64-3.02.37-.91.86-1.69,1.48-2.34.62-.65,1.37-1.15,2.23-1.51.86-.36,1.82-.54,2.87-.54,3.08,0,5.39,1.62,6.93,4.87,1.12,2.37,1.68,4.99,1.68,7.86Zm-3.84-1.97c0-1.02-.28-2.14-.85-3.36-.68-1.44-1.48-2.17-2.38-2.17-.49,0-.89.19-1.22.58-.32.39-.49.83-.49,1.31,0,.71.09,1.42.27,2.12s.43,1.32.75,1.87c.32.55.7,1,1.13,1.34.43.34.9.51,1.42.51.91,0,1.36-.74,1.36-2.21Z"/>
          <path class="cls-7" d="m245.67,282.6h-1.92c-3.16,0-5.47-.78-6.93-2.34-1.46-1.56-2.19-3.96-2.19-7.2,0-2.64-.1-6.2-.29-10.68-.23-4.7-.45-7.79-.66-9.25-.02-.08-.03-.16-.04-.24,0-.08-.01-.16-.01-.24,0-.5.15-.88.44-1.12l7.08-4.99c.49-.34.82-.51,1-.51.21,0,.32.19.32.58v21.43c0,2.37,1.05,3.55,3.14,3.55h.07v11Z"/>
          <path class="cls-7" d="m284.78,267.49l-2.77,6.54h-.49c-2.42,0-4.34.34-5.77,1.02-.99.47-2.43,1.46-4.31,2.97-.92.75-1.76,1.37-2.49,1.87-.74.5-1.39.88-1.96,1.14-2.34,1.05-4.9,1.58-7.69,1.58h-15.34v-11.05h16.46c4.98,0,8.69-.45,11.12-1.36l-4.84-2.02c-1.69-.7-2.91-1.05-3.67-1.05s-1.61.34-2.58,1.02c-.96.68-1.57,1.02-1.85,1.02-.92,0-1.39-.54-1.39-1.61,0-1.17.78-2.84,2.34-5.01,1.95-2.69,4.09-4.04,6.42-4.04,1.62,0,3.66.77,6.13,2.31,1.59,1.01,2.94,1.81,4.05,2.42,1.11.61,1.99,1.03,2.64,1.25.55.19,1.28.41,2.19.66.91.24,2.01.5,3.31.78.5.11.75.32.75.61,0,.18-.09.49-.27.92Z"/>
        </g>
        <circle class="cls-7" cx="107.88" cy="291.48" r="5.64"/>
        <circle class="cls-7" cx="267.48" cy="291.48" r="5.64"/>
      </g>
    </g>
  </g>
</svg>